<?xml version="1.0" encoding="utf-8"?>
<!-- Generator: Adobe Illustrator 22.0.0, SVG Export Plug-In . SVG Version: 6.00 Build 0)  -->
<!DOCTYPE svg PUBLIC "-//W3C//DTD SVG 1.1//EN" "http://www.w3.org/Graphics/SVG/1.1/DTD/svg11.dtd">
<svg version="1.1" id="Layer_1" xmlns="http://www.w3.org/2000/svg" xmlns:xlink="http://www.w3.org/1999/xlink" x="0px" y="0px"
	 viewBox="0 0 512 512" enable-background="new 0 0 512 512" xml:space="preserve">
<g>
	<path d="M335.2,272.4c13.8-1.4,26.2-5.8,37-14c3.9-2.9,7.2-6.8,9.9-10.8c2.9-4.2,2-6.7-2.2-9.5c-2.6-1.7-5.7-2.6-8.2-4.4
		c-7.8-5.4-15.6-10.7-23-16.5c-9.1-7-17.9-14.6-26.9-21.8c-9.7-7.8-17.7-17.1-24.8-27.2c-3.1-4.4-6.5-8.7-9.9-12.9
		c-7.6-9.4-16.9-16.4-28.5-19.9c-13.5-4-22.7-12.6-29.6-24.8c-17.6-31-35.7-61.6-53.6-92.4c-1.9-3.3-4.5-4.7-8.2-4.7
		c-6.5,0-11.6,2.6-15.5,7.6c-6.3,8.1-8.6,17.8-10.1,27.6c-1.8,12-3.3,24-4.9,36c-0.2,1.6-0.9,3.1-1.1,4.7c-0.4,2.9-2.1,3.8-4.9,3.3
		c-2.6-0.5-4.2-1.4-4.1-4.7c0.1-1.9,0-2.5,0.2-5c0.2-2.5,0.4-4.6,0.1-4.8s-3.3,1.6-4.1,2.2c-5.9,4.2-5.9,4.2-11.1-1
		c-1.3-1.3-2.5-2.7-3.9-4c-3.7-3.5-7.7-3.9-11.9-1c-10,6.8-13.1,16.8-12.5,28.3c0.6,9.9,4.7,18.5,10.7,26.2
		c6.3,8.1,12.9,15.9,19.3,23.9c18.3,22.8,29.2,49.4,39.3,76.5c12,32.3,18.7,65.4,18,99.7c-0.3,13.9-2.8,27.7-4.2,41.6
		c-2.2,21.3-4.6,42.6-6.4,64c-1.7,19.1,2.5,37.1,11.4,54c2.6,5,6.1,9,12.3,9.1c13,0.1,26.1,1.2,39,0.2c53.9-4.2,106.6-14.9,157.8-32
		c12.8-4.3,25-10.5,37.5-15.9c1.6-0.7,2.9-1.8,4.4-2.7c8.4-4.8,6.5-16.1-0.2-20.7c-9.4-6.5-18.9-13.4-27-21.4
		c-28.9-28.4-49.1-62-58.3-101.8C334.9,293.4,334.2,283.1,335.2,272.4z M276.4,185.4c-1.5,0.3-2.2,0.6-2.8,0.5
		c-9.7-1.4-18.7-4.6-26.2-11.3c-0.5-0.4-1.1-1.1-1.1-1.7c-0.6-6.3-1.1-12.7-1.7-19.2c1.5,0,2-0.2,2.4,0c7.1,3.8,14.1,7.7,21.1,11.6
		c0.8,0.5,1.5,1.5,1.8,2.4C272,173.5,274.1,179.2,276.4,185.4z"/>
</g>
</svg>
